<svg width="275px" height="77.6px" xmlns="http://www.w3.org/2000/svg" viewBox="112.57496337890626 36.2 274.8500732421875 77.6" style="background: rgba(0, 0, 0, 0);" preserveAspectRatio="xMidYMid"><defs><linearGradient id="editing-outline-gradient" x1="1.4876883405951378" x2="-0.48768834059513777" y1="0.6564344650402307" y2="0.34356553495976927"><stop offset="0" stop-color="#ee4208"></stop><stop offset="1" stop-color="#4139ff"></stop></linearGradient><filter id="editing-outline" x="-100%" y="-100%" width="300%" height="300%"><feMorphology in="SourceGraphic" operator="dilate" radius="2" result="outline"></feMorphology><feComposite operator="out" in="outline" in2="SourceAlpha"></feComposite></filter></defs><g filter="url(#editing-outline)"><g transform="translate(155.98001247644424, 88.02500057220459)"><path d="M1.18 0L1.02-3.26L3.36-3.90L3.36-16.16L3.36-16.16Q3.36-16.99 3.23-17.26L3.23-17.26L3.23-17.26Q3.10-17.54 2.56-17.76L2.56-17.76L0.90-18.72L1.06-21.57L11.33-21.57L11.46-18.30L9.15-17.66L9.15-5.18L9.15-5.18Q9.15-4.42 9.26-4.19L9.26-4.19L9.26-4.19Q9.38-3.97 9.86-3.74L9.86-3.74L11.49-2.75L11.39 0L1.18 0ZM18.43 0.42L13.50-12.35L13.50-12.35Q13.15-13.22 13.02-13.47L13.02-13.47L13.02-13.47Q12.90-13.73 12.54-14.18L12.54-14.18L12-14.88L12.16-16.74L20.22-16.74L20.54-14.02L18.69-13.57L21.60-5.31L24.42-12.90L24.42-12.90Q24.48-13.09 24.48-13.18L24.48-13.18L24.48-13.18Q24.48-13.47 24.19-13.57L24.19-13.57L22.69-14.21L22.98-16.74L29.06-16.74L29.38-14.14L23.04 0.06L18.43 0.42ZM35.55 0.42L35.55 0.42Q33.38 0.42 32.06-0.78L32.06-0.78L32.06-0.78Q30.75-1.98 30.75-3.87L30.75-3.87L30.75-3.87Q30.75-6.40 33.30-7.84L33.30-7.84L33.30-7.84Q35.84-9.28 40.70-9.47L40.70-9.47L40.70-9.47Q40.70-10.98 40.46-11.70L40.46-11.70L40.46-11.70Q40.22-12.42 39.60-12.69L39.60-12.69L39.60-12.69Q38.98-12.96 37.70-12.96L37.70-12.96L37.70-12.96Q36.38-12.96 35.84-12.86L35.84-12.86L34.53-10.27L32.16-10.43L32.16-10.43Q31.62-12.99 31.39-15.74L31.39-15.74L31.39-15.74Q33.18-16.35 35.31-16.70L35.31-16.70L35.31-16.70Q37.44-17.06 39.30-17.06L39.30-17.06L39.30-17.06Q42.69-17.06 44.16-15.73L44.16-15.73L44.16-15.73Q45.63-14.40 45.63-11.33L45.63-11.33L45.63-4.64L45.63-4.64Q45.63-4.06 45.74-3.84L45.74-3.84L45.74-3.84Q45.86-3.62 46.24-3.39L46.24-3.39L47.52-2.66L47.39-0.67L47.39-0.67Q43.68 0.19 41.54 0.29L41.54 0.29L41.54 0.29Q41.47 0.10 41.34-0.40L41.34-0.40L41.34-0.40Q41.22-0.90 41.12-1.34L41.12-1.34L41.12-1.34Q39.87-0.54 38.38-0.06L38.38-0.06L38.38-0.06Q36.90 0.42 35.55 0.42L35.55 0.42ZM37.70-3.20L37.70-3.20Q38.98-3.20 40.80-4.06L40.80-4.06L40.67-6.50L40.67-6.50Q39.90-6.56 39.65-6.56L39.65-6.56L39.65-6.56Q38.78-6.56 37.63-6.38L37.63-6.38L37.63-6.38Q36.48-6.21 35.81-5.98L35.81-5.98L35.81-5.98Q35.71-5.57 35.71-5.22L35.71-5.22L35.71-5.22Q35.71-4.26 36.24-3.73L36.24-3.73L36.24-3.73Q36.77-3.20 37.70-3.20L37.70-3.20ZM48.83-0.03L48.67-3.07L50.66-3.65L50.66-11.39L50.66-11.39Q50.66-12.10 50.56-12.30L50.56-12.30L50.56-12.30Q50.46-12.51 50.05-12.77L50.05-12.77L48.64-13.54L48.74-15.94L49.44-16.06L49.44-16.06Q53.63-16.90 55.49-16.96L55.49-16.96L55.49-16.96Q55.74-16.29 55.90-15.49L55.90-15.49L55.90-15.49Q57.86-16.38 59.09-16.72L59.09-16.72L59.09-16.72Q60.32-17.06 61.41-17.06L61.41-17.06L61.41-17.06Q66.50-17.06 66.50-10.98L66.50-10.98L66.50-4.70L66.50-4.70Q66.50-4.03 66.59-3.81L66.59-3.81L66.59-3.81Q66.69-3.58 67.14-3.33L67.14-3.33L68.67-2.43L68.54-0.03L59.71-0.03L59.55-3.07L61.12-3.52L61.12-9.57L61.12-9.57Q61.12-11.01 61.02-11.58L61.02-11.58L61.02-11.58Q60.93-12.16 60.50-12.48L60.50-12.48L60.50-12.48Q60.06-12.80 58.98-12.80L58.98-12.80L58.98-12.80Q57.82-12.80 56.06-12.45L56.06-12.45L56.06-4.70L56.06-4.70Q56.06-4.03 56.16-3.81L56.16-3.81L56.16-3.81Q56.26-3.58 56.67-3.33L56.67-3.33L58.24-2.43L58.11-0.03L48.83-0.03ZM93.28 0.93L82.11-13.63L82.66-5.25L82.66-5.25Q82.69-4.51 82.82-4.29L82.82-4.29L82.82-4.29Q82.94-4.06 83.39-3.81L83.39-3.81L85.06-2.69L84.93 0L76.61 0L76.45-3.49L78.18-3.90L78.30-16.51L78.30-16.51Q78.30-17.12 78.21-17.34L78.21-17.34L78.21-17.34Q78.11-17.57 77.76-17.86L77.76-17.86L76.58-18.75L76.80-21.57L83.42-21.57L93.09-9.18L92.64-16.32L92.64-16.32Q92.61-17.09 92.48-17.31L92.48-17.31L92.48-17.31Q92.35-17.54 91.90-17.79L91.90-17.79L90.24-18.88L90.34-21.57L98.59-21.57L98.72-18.30L97.09-17.60L96.96-0.29L93.28 0.93ZM102.98-18.78L101.63-23.68L107.07-25.12L108.38-20.26L102.98-18.78ZM100.38 0L100.29-2.94L102.53-3.62L102.53-11.39L102.53-11.39Q102.53-12.10 102.42-12.30L102.42-12.30L102.42-12.30Q102.30-12.51 101.86-12.77L101.86-12.77L100.45-13.54L100.61-15.94L100.61-15.94Q103.26-16.45 104.72-16.69L104.72-16.69L104.72-16.69Q106.18-16.93 107.39-16.96L107.39-16.96L107.39-16.96Q107.81-15.58 107.90-14.91L107.90-14.91L107.90-4.67L107.90-4.67Q107.90-4 108-3.78L108-3.78L108-3.78Q108.10-3.55 108.54-3.30L108.54-3.30L110.11-2.40L109.98 0L100.38 0ZM111.58 0L111.42-3.04L113.41-3.62L113.41-18.94L113.41-18.94Q113.41-19.65 113.31-19.86L113.31-19.86L113.31-19.86Q113.22-20.06 112.80-20.32L112.80-20.32L111.39-21.06L111.49-23.49L112.48-23.65L112.48-23.65Q116.70-24.42 118.40-24.48L118.40-24.48L118.40-24.48Q118.69-23.71 118.82-22.82L118.82-22.82L118.82-9.79L122.37-13.25L122.37-13.25Q122.53-13.41 122.53-13.60L122.53-13.60L122.53-13.60Q122.53-13.76 122.43-13.86L122.43-13.86L121.54-14.98L121.89-16.74L128.99-16.74L128.99-16.74Q129.28-15.68 129.38-14.46L129.38-14.46L124.06-9.92L130.24-1.41L130.24 0L124.61 0L118.82-8.32L118.82-4.67L118.82-4.67Q118.82-4 118.91-3.78L118.91-3.78L118.91-3.78Q119.01-3.55 119.42-3.30L119.42-3.30L120.99-2.40L120.86 0L111.58 0ZM133.89-18.78L132.54-23.68L137.98-25.12L139.30-20.26L133.89-18.78ZM131.30 0L131.20-2.94L133.44-3.62L133.44-11.39L133.44-11.39Q133.44-12.10 133.33-12.30L133.33-12.30L133.33-12.30Q133.22-12.51 132.77-12.77L132.77-12.77L131.36-13.54L131.52-15.94L131.52-15.94Q134.18-16.45 135.63-16.69L135.63-16.69L135.63-16.69Q137.09-16.93 138.30-16.96L138.30-16.96L138.30-16.96Q138.72-15.58 138.82-14.91L138.82-14.91L138.82-4.67L138.82-4.67Q138.82-4 138.91-3.78L138.91-3.78L138.91-3.78Q139.01-3.55 139.46-3.30L139.46-3.30L141.02-2.40L140.90 0L131.30 0ZM148.99 0.42L148.99 0.42Q146.18 0.42 144.83-0.98L144.83-0.98L144.83-0.98Q143.49-2.37 143.49-5.22L143.49-5.22L143.49-12.99L141.25-12.99L141.25-15.33L147.01-20.58L148.86-20.35L148.86-16.74L154.24-16.74L154.24-12.96L148.86-12.96L148.86-6.37L148.86-6.37Q148.86-4.83 149.30-4.32L149.30-4.32L149.30-4.32Q149.73-3.81 150.98-3.81L150.98-3.81L150.98-3.81Q152.03-3.81 153.92-4.10L153.92-4.10L154.30-0.83L154.30-0.83Q153.15-0.29 151.73 0.06L151.73 0.06L151.73 0.06Q150.30 0.42 148.99 0.42L148.99 0.42ZM158.69-18.78L157.34-23.68L162.78-25.12L164.10-20.26L158.69-18.78ZM156.10 0L156.00-2.94L158.24-3.62L158.24-11.39L158.24-11.39Q158.24-12.10 158.13-12.30L158.13-12.30L158.13-12.30Q158.02-12.51 157.57-12.77L157.57-12.77L156.16-13.54L156.32-15.94L156.32-15.94Q158.98-16.45 160.43-16.69L160.43-16.69L160.43-16.69Q161.89-16.93 163.10-16.96L163.10-16.96L163.10-16.96Q163.52-15.58 163.62-14.91L163.62-14.91L163.62-4.67L163.62-4.67Q163.62-4 163.71-3.78L163.71-3.78L163.71-3.78Q163.81-3.55 164.26-3.30L164.26-3.30L165.82-2.40L165.70 0L156.10 0ZM167.30-0.03L167.14-3.07L169.12-3.65L169.12-11.39L169.12-11.39Q169.12-12.10 169.02-12.30L169.02-12.30L169.02-12.30Q168.93-12.51 168.51-12.77L168.51-12.77L167.10-13.54L167.20-15.94L167.90-16.06L167.90-16.06Q172.10-16.90 173.95-16.96L173.95-16.96L173.95-16.96Q174.21-16.29 174.37-15.49L174.37-15.49L174.37-15.49Q176.32-16.38 177.55-16.72L177.55-16.72L177.55-16.72Q178.78-17.06 179.87-17.06L179.87-17.06L179.87-17.06Q184.96-17.06 184.96-10.98L184.96-10.98L184.96-4.70L184.96-4.70Q184.96-4.03 185.06-3.81L185.06-3.81L185.06-3.81Q185.15-3.58 185.60-3.33L185.60-3.33L187.14-2.43L187.01-0.03L178.18-0.03L178.02-3.07L179.58-3.52L179.58-9.57L179.58-9.57Q179.58-11.01 179.49-11.58L179.49-11.58L179.49-11.58Q179.39-12.16 178.96-12.48L178.96-12.48L178.96-12.48Q178.53-12.80 177.44-12.80L177.44-12.80L177.44-12.80Q176.29-12.80 174.53-12.45L174.53-12.45L174.53-4.70L174.53-4.70Q174.53-4.03 174.62-3.81L174.62-3.81L174.62-3.81Q174.72-3.58 175.14-3.33L175.14-3.33L176.70-2.43L176.58-0.03L167.30-0.03Z" fill="url(#editing-outline-gradient)"></path></g></g><style>text {
  font-size: 64px;
  font-family: Arial Black;
  dominant-baseline: central;
  text-anchor: middle;
}</style></svg>